<?xml version="1.0" encoding="utf-8"?>
<!-- Generator: Adobe Illustrator 22.0.1, SVG Export Plug-In . SVG Version: 6.00 Build 0)  -->
<svg version="1.1" id="Слой_2" xmlns="http://www.w3.org/2000/svg" xmlns:xlink="http://www.w3.org/1999/xlink" x="0px" y="0px"
	 width="130px" height="78px" viewBox="0 0 130 78" enable-background="new 0 0 130 78" xml:space="preserve">
<g>
	<path fill="#00C4E0" d="M21.9,21.8c4.7,0,9.1,1.8,12.4,5.1l2.8-2.8c-4.1-4.1-9.5-6.3-15.2-6.3C10,17.8,0.3,27.5,0.3,39.5
		c0,0.1,0,0.1,0,0.3c0,8.8,9,17.5,11.9,20.4c0.2,0.2,0.4,0.4,0.6,0.5c1.6,1.7,1.6,7.9,1.6,10.2c0,2,0.7,3.7,1.9,5
		c2,2,4.9,2.1,5.5,2.1c0,0,0,0,0,0c0,0,0,0,0,0c0.6,0,3.4-0.1,5.5-2.1c1.3-1.2,1.9-3,1.9-5c0-2.3,0-8.5,1.6-10.2
		c0.1-0.1,0.3-0.3,0.6-0.6l0.7-0.7l-2.8-2.9l-0.7,0.7c-0.3,0.2-0.5,0.5-0.6,0.6c-1.5,1.5-2.2,3.9-2.5,7.1c-0.8,0.1-1.9,0.3-3.6,0.3
		c-1.9,0-3.1-0.2-3.8-0.3c-0.3-3.1-1.1-5.5-2.5-7c-0.2-0.2-0.4-0.4-0.6-0.6C12.4,54.7,4.3,46.8,4.3,39.8c0-0.1,0-0.1,0-0.3
		C4.3,29.7,12.2,21.8,21.9,21.8z M22,69.3c1.3,0,2.4-0.1,3.3-0.2c0,0.6,0,1.2,0,1.8c0,0.9-0.2,1.6-0.7,2.1c-0.8,0.8-2.2,1-2.7,1
		c0,0,0,0,0,0l0,1.8l0-1.8c0,0,0,0,0,0c-0.5,0-1.9-0.2-2.7-1c-0.5-0.5-0.7-1.2-0.7-2.1c0-0.6,0-1.3,0-1.9
		C19.4,69.2,20.5,69.3,22,69.3z"/>
	<rect x="19" y="0" fill="#00C4E0" width="4" height="11"/>
	<rect x="6.1" y="4.7" transform="matrix(0.9483 -0.3173 0.3173 0.9483 -2.2221 2.9871)" fill="#00C4E0" width="4" height="7.3"/>
	<rect x="29.8" y="6.3" transform="matrix(0.3173 -0.9483 0.9483 0.3173 14.9107 37.3453)" fill="#00C4E0" width="7.3" height="4"/>
</g>
<g>
	<path fill="#00C4E0" d="M23.9,52.2h-4.4V31h4.4V52.2z"/>
	<path fill="#00C4E0" d="M27.3,37.8c0.9-0.4,1.8-0.8,2.7-1c1-0.2,1.9-0.4,2.9-0.4c0.9,0,1.7,0.1,2.5,0.3c0.8,0.2,1.5,0.5,2.2,1
		c0.6,0.5,1.1,1,1.5,1.8c0.4,0.7,0.6,1.6,0.6,2.6v10.2h-4.1v-10c0-0.7-0.2-1.2-0.7-1.6c-0.5-0.3-1-0.5-1.6-0.5
		c-0.6,0-1.2,0.1-1.7,0.4v11.7h-4.2V37.8z"/>
	<path fill="#00C4E0" d="M49.9,34.8c-0.9-0.2-1.7-0.1-2.2,0.3c-0.5,0.4-0.8,0.9-0.8,1.5v0.8h2.8v3.8H47v11h-4.2V36.4
		c0-0.9,0.2-1.7,0.5-2.5c0.3-0.7,0.8-1.3,1.4-1.8c0.6-0.5,1.4-0.8,2.2-1s1.8-0.3,2.9-0.2V34.8z"/>
	<path fill="#00C4E0" d="M51.6,42c0-0.9,0.2-1.7,0.5-2.4c0.4-0.7,0.8-1.3,1.4-1.7c0.6-0.5,1.2-0.8,2-1.1c0.8-0.2,1.5-0.4,2.3-0.4
		c0.8,0,1.5,0.1,2.3,0.4c0.7,0.2,1.4,0.6,2,1.1s1,1,1.4,1.7C63.8,40.2,64,41,64,42V47c0,0.9-0.2,1.8-0.5,2.4
		c-0.4,0.7-0.8,1.3-1.4,1.7c-0.6,0.5-1.2,0.8-2,1s-1.5,0.3-2.3,0.3c-0.8,0-1.5-0.1-2.3-0.3s-1.4-0.6-2-1c-0.6-0.4-1.1-1-1.4-1.7
		c-0.4-0.7-0.5-1.5-0.5-2.4V42z M57.8,40.2c-0.5,0-1,0.1-1.4,0.4c-0.4,0.3-0.7,0.6-0.7,1.1v5.4c0,0.5,0.2,0.9,0.7,1.2
		c0.4,0.3,0.9,0.5,1.4,0.5c0.5,0,0.9-0.2,1.4-0.5c0.4-0.3,0.7-0.7,0.7-1.2v-5.4c0-0.5-0.2-0.9-0.7-1.1
		C58.7,40.3,58.3,40.2,57.8,40.2z"/>
	<path fill="#444444" d="M68.4,36.1c-0.1,0.8,0.1,1.4,0.4,1.9c0.3,0.5,0.7,0.9,1.3,1.2c0.5,0.3,1.2,0.6,1.9,0.7
		c0.7,0.2,1.5,0.3,2.2,0.5c0.9,0.2,1.8,0.4,2.7,0.6c0.9,0.2,1.7,0.6,2.4,1s1.3,1.1,1.7,1.9s0.6,1.8,0.5,3.1c0,0.9-0.3,1.8-0.7,2.4
		c-0.4,0.7-1,1.3-1.7,1.7s-1.5,0.8-2.4,1c-0.9,0.2-1.8,0.3-2.7,0.3c-0.8,0-1.6-0.1-2.4-0.3s-1.5-0.4-2.2-0.8
		c-0.7-0.3-1.3-0.8-1.8-1.3c-0.5-0.5-1-1.1-1.3-1.8l1.6-0.7c0.2,0.5,0.5,1,1,1.4s0.9,0.7,1.5,0.9c0.5,0.3,1.1,0.4,1.8,0.6
		s1.3,0.2,1.9,0.2c0.7,0,1.4-0.1,2.1-0.2c0.7-0.2,1.3-0.4,1.8-0.7c0.5-0.3,1-0.7,1.3-1.2c0.3-0.5,0.5-1,0.6-1.7
		c0.1-0.9-0.1-1.6-0.4-2.2c-0.3-0.6-0.8-1-1.3-1.4c-0.6-0.3-1.2-0.6-2-0.8c-0.8-0.2-1.6-0.4-2.4-0.6c-0.9-0.2-1.7-0.4-2.6-0.6
		c-0.8-0.2-1.6-0.5-2.3-1c-0.7-0.4-1.2-1-1.6-1.6s-0.6-1.6-0.5-2.7c0-0.9,0.2-1.7,0.7-2.4c0.4-0.7,1-1.2,1.7-1.7
		c0.7-0.5,1.5-0.8,2.3-1c0.9-0.2,1.8-0.3,2.7-0.3c0.8,0,1.6,0.1,2.3,0.3c0.8,0.2,1.5,0.4,2.2,0.8c0.7,0.3,1.3,0.7,1.8,1.2
		c0.5,0.5,0.9,1.1,1.2,1.7l-1.6,0.7c-0.2-0.5-0.5-0.9-0.9-1.3c-0.4-0.4-0.9-0.7-1.4-0.9c-0.5-0.2-1.1-0.4-1.7-0.6
		c-0.6-0.1-1.2-0.2-1.8-0.2c-0.7,0-1.4,0.1-2,0.2c-0.7,0.2-1.2,0.4-1.8,0.7c-0.5,0.3-0.9,0.7-1.3,1.1S68.4,35.5,68.4,36.1z"/>
	<path fill="#444444" d="M86.6,44.9l8.2-8.2h2.1l-7,7l6.9,8.5h-2.1l-6-7.3l-2.2,2.2v5.2h-1.7V31h1.7V44.9z"/>
	<path fill="#444444" d="M98.9,32.9c0-0.4,0.1-0.7,0.4-1c0.3-0.3,0.6-0.4,1-0.4s0.7,0.1,1,0.4c0.3,0.3,0.4,0.6,0.4,1s-0.1,0.7-0.4,1
		s-0.6,0.4-1,0.4s-0.7-0.1-1-0.4S98.9,33.3,98.9,32.9z M101.1,36.7v15.5h-1.7V36.7H101.1z"/>
	<path fill="#444444" d="M109.8,52.5c-1.5,0-2.7-0.4-3.5-1.3c-0.8-0.9-1.2-2.1-1.2-3.6V31h1.7v16.6c0,1,0.2,1.8,0.7,2.4
		c0.5,0.6,1.3,0.8,2.3,0.8V52.5z"/>
	<path fill="#444444" d="M116.7,52.5c-1.5,0-2.7-0.4-3.5-1.3c-0.8-0.9-1.2-2.1-1.2-3.6V31h1.7v16.6c0,1,0.2,1.8,0.7,2.4
		c0.5,0.6,1.3,0.8,2.3,0.8V52.5z"/>
	<path fill="#444444" d="M119.2,48.5c0.6,0.8,1.3,1.4,2.1,1.8s1.7,0.6,2.6,0.6c0.4,0,0.8,0,1.3-0.1s0.8-0.2,1.1-0.5
		c0.3-0.2,0.6-0.5,0.8-0.9c0.2-0.4,0.3-0.8,0.3-1.3c0-0.5-0.1-1-0.3-1.3s-0.5-0.6-0.9-0.8c-0.4-0.2-0.7-0.4-1.2-0.5
		c-0.4-0.1-0.8-0.2-1.2-0.3c-0.6-0.1-1.3-0.3-1.9-0.4c-0.6-0.2-1.2-0.4-1.7-0.7s-0.9-0.7-1.3-1.2s-0.5-1.2-0.5-2
		c0-0.8,0.2-1.5,0.5-2c0.3-0.6,0.8-1,1.3-1.4c0.5-0.4,1.1-0.6,1.8-0.8c0.6-0.2,1.3-0.2,1.9-0.2c0.8,0,1.6,0.1,2.4,0.4
		c0.8,0.3,1.4,0.7,2,1.2l-1.1,1.3c-0.4-0.5-0.9-0.8-1.5-0.9c-0.6-0.2-1.2-0.3-1.8-0.3c-0.4,0-0.8,0-1.3,0.1s-0.9,0.2-1.3,0.5
		c-0.4,0.2-0.7,0.5-1,0.9c-0.3,0.4-0.4,0.8-0.4,1.4c0,0.5,0.1,0.9,0.4,1.3c0.3,0.3,0.6,0.6,1,0.8c0.4,0.2,0.8,0.4,1.3,0.5
		c0.5,0.1,0.9,0.2,1.3,0.3c0.6,0.1,1.2,0.3,1.8,0.5c0.6,0.2,1.1,0.5,1.6,0.8c0.5,0.3,0.8,0.8,1.1,1.3c0.3,0.5,0.4,1.2,0.4,1.9
		c0,0.8-0.1,1.4-0.4,2c-0.3,0.5-0.7,1-1.2,1.4c-0.5,0.4-1,0.6-1.6,0.8c-0.6,0.2-1.2,0.3-1.9,0.3c-1.2,0-2.4-0.2-3.4-0.8
		s-1.9-1.4-2.6-2.4L119.2,48.5z"/>
</g>
</svg>
